<svg width="80" height="80" viewBox="0 0 80 80" fill="none" xmlns="http://www.w3.org/2000/svg">
<circle opacity="0.3" cx="40" cy="40" r="40" fill="#666666"/>
<path d="M63.8649 50.1513C63.1617 50.8543 62.2081 51.2493 61.2137 51.2493C60.2193 51.2493 59.2657 50.8543 58.5624 50.1513L39.9999 31.5888L21.4374 50.1513C20.7302 50.8344 19.7829 51.2124 18.7997 51.2038C17.8164 51.1953 16.8759 50.8009 16.1806 50.1056C15.4853 49.4103 15.091 48.4698 15.0824 47.4866C15.0739 46.5033 15.4518 45.5561 16.1349 44.8488L37.3487 23.6351C38.0519 22.932 39.0056 22.5371 39.9999 22.5371C40.9943 22.5371 41.948 22.932 42.6512 23.6351L63.8649 44.8488C64.568 45.552 64.9629 46.5057 64.9629 47.5001C64.9629 48.4944 64.568 49.4481 63.8649 50.1513Z" fill="white"/>
</svg>
